<svg width="24" height="24" viewBox="0 0 24 24" fill="none" xmlns="http://www.w3.org/2000/svg">
<g clip-path="url(#clip0_48_47)">
<path d="M23.4 21H0.6C0.2685 21 0 21.3356 0 21.75V23.25C0 23.6644 0.2685 24 0.6 24H23.4C23.7315 24 24 23.6644 24 23.25V21.75C24 21.3356 23.7315 21 23.4 21ZM1.68038 9.64029L5.00813 13.3903C5.28118 13.6985 5.60834 13.9222 5.96325 14.0433L16.7483 17.7159C17.7413 18.0539 18.7943 18.1247 19.7858 17.7797C20.8984 17.392 21.4148 16.7855 21.5576 16.1058C21.7013 15.4261 21.4928 14.5725 20.6813 13.5295C19.9583 12.6005 19.0181 11.9925 18.0251 11.6545L14.3685 10.4095L10.605 1.41654C10.5484 1.14419 10.3819 0.931382 10.1678 0.858257L7.72688 0.0271631C7.33088 -0.107837 6.94313 0.276538 6.95025 0.797788L8.74725 8.49513L4.91475 7.19013L3.88013 4.00826C3.80775 3.77904 3.65475 3.60654 3.46688 3.54279L1.977 3.03513C1.58925 2.90295 1.20713 3.26951 1.2 3.77951L1.20863 8.55045C1.21575 8.9681 1.43475 9.36326 1.68038 9.64029V9.64029Z" fill="#013E87"/>
</g>
<defs>
<clipPath id="clip0_48_47">
<rect width="24" height="24" fill="white"/>
</clipPath>
</defs>
</svg>
