<svg width="24" height="25" viewBox="0 0 24 25" fill="none" xmlns="http://www.w3.org/2000/svg">
<path d="M23.3967 21.7928H0.597166C0.265672 21.7928 -0.00282309 22.1508 -0.00282309 22.5928V24.1928C-0.00282309 24.6348 0.265672 24.9928 0.597166 24.9928H23.3967C23.7282 24.9928 23.9967 24.6348 23.9967 24.1928V22.5928C23.9967 22.1508 23.7282 21.7928 23.3967 21.7928ZM3.01774 16.4564C3.25324 16.7984 3.58398 16.9924 3.9301 16.9919L8.82526 16.9829C9.21157 16.9822 9.59234 16.8603 9.93674 16.6269L20.8475 9.24453C21.8503 8.56604 22.7491 7.59756 23.3607 6.32908C24.0473 4.9051 24.122 3.87462 23.8509 3.14663C23.5805 2.41814 22.9231 1.88314 21.6665 1.77415C20.5472 1.67715 19.4338 2.07014 18.4311 2.74813L14.737 5.24759L6.53593 1.14466C6.43732 1.05609 6.32276 1.00424 6.2041 0.994485C6.08543 0.984728 5.96696 1.01741 5.86094 1.08916L3.39536 2.75763C2.99525 3.02813 2.8985 3.74012 3.20149 4.18411L9.05963 9.08904L5.18933 11.708L2.47626 9.88452C2.38278 9.82169 2.27954 9.78904 2.17486 9.78921C2.07018 9.78939 1.967 9.82238 1.87364 9.88552L0.368795 10.904C-0.0226977 11.169 -0.125821 11.86 0.159924 12.308L3.01774 16.4564Z" fill="#013E87"/>
</svg>
