<svg width="30" height="38" viewBox="0 0 30 38" fill="none" xmlns="http://www.w3.org/2000/svg">
<path d="M10.0001 27.3333H15.0001M1.66675 5.66665V32.3333C1.66675 33.2174 2.01794 34.0652 2.64306 34.6903C3.26818 35.3155 4.11603 35.6666 5.00008 35.6666H25.0001C25.8841 35.6666 26.732 35.3155 27.3571 34.6903C27.9822 34.0652 28.3334 33.2174 28.3334 32.3333V12.9033C28.3334 12.4592 28.2446 12.0197 28.0723 11.6104C27.9 11.2011 27.6476 10.8304 27.3301 10.52L19.9301 3.28331C19.3074 2.67441 18.471 2.33342 17.6001 2.33331H5.00008C4.11603 2.33331 3.26818 2.6845 2.64306 3.30962C2.01794 3.93474 1.66675 4.78259 1.66675 5.66665V5.66665ZM10.0001 20.6666H20.0001H10.0001Z" stroke="#FFC90B" stroke-width="3.33333" stroke-linecap="round" stroke-linejoin="round"/>
<path d="M18.3335 2.33331V8.99998C18.3335 9.88403 18.6847 10.7319 19.3098 11.357C19.9349 11.9821 20.7828 12.3333 21.6668 12.3333H28.3335" stroke="#FFC90B" stroke-width="3.33333" stroke-linejoin="round"/>
</svg>
