<svg width="21" height="23" viewBox="0 0 21 23" fill="none" xmlns="http://www.w3.org/2000/svg">
<path d="M20.5511 5.16155L16.0057 0.930783C15.8325 0.773633 15.5998 0.686244 15.3579 0.687514H6.26704C5.78483 0.687514 5.32237 0.86581 4.98139 1.18318C4.64042 1.50055 4.44886 1.93099 4.44886 2.37982V4.07213H2.63068C2.14847 4.07213 1.68601 4.25042 1.34503 4.56779C1.00406 4.88516 0.8125 5.31561 0.8125 5.76443V20.9952C0.8125 21.444 1.00406 21.8745 1.34503 22.1918C1.68601 22.5092 2.14847 22.6875 2.63068 22.6875H15.3579C15.8402 22.6875 16.3026 22.5092 16.6436 22.1918C16.9846 21.8745 17.1761 21.444 17.1761 20.9952V19.3029H18.9943C19.4765 19.3029 19.939 19.1246 20.28 18.8072C20.6209 18.4899 20.8125 18.0594 20.8125 17.6106V5.76443C20.8138 5.53932 20.72 5.32274 20.5511 5.16155V5.16155ZM11.7216 18.4567H6.26704C6.02594 18.4567 5.79471 18.3676 5.62422 18.2089C5.45373 18.0502 5.35795 17.835 5.35795 17.6106C5.35795 17.3862 5.45373 17.1709 5.62422 17.0123C5.79471 16.8536 6.02594 16.7644 6.26704 16.7644H11.7216C11.9627 16.7644 12.1939 16.8536 12.3644 17.0123C12.5349 17.1709 12.6307 17.3862 12.6307 17.6106C12.6307 17.835 12.5349 18.0502 12.3644 18.2089C12.1939 18.3676 11.9627 18.4567 11.7216 18.4567ZM11.7216 15.0721H6.26704C6.02594 15.0721 5.79471 14.983 5.62422 14.8243C5.45373 14.6656 5.35795 14.4504 5.35795 14.226C5.35795 14.0016 5.45373 13.7863 5.62422 13.6276C5.79471 13.469 6.02594 13.3798 6.26704 13.3798H11.7216C11.9627 13.3798 12.1939 13.469 12.3644 13.6276C12.5349 13.7863 12.6307 14.0016 12.6307 14.226C12.6307 14.4504 12.5349 14.6656 12.3644 14.8243C12.1939 14.983 11.9627 15.0721 11.7216 15.0721ZM18.9943 17.6106H17.1761V9.14905C17.1775 8.92393 17.0836 8.70736 16.9148 8.54616L12.3693 4.3154C12.1961 4.15825 11.9634 4.07086 11.7216 4.07213H6.26704V2.37982H14.9829L18.9943 6.11347V17.6106Z" fill="#013E87"/>
</svg>
