<svg width="20" height="20" viewBox="0 0 20 20" fill="none" xmlns="http://www.w3.org/2000/svg">
<g clip-path="url(#clip0_66_44)">
<path d="M10 0C4.47715 0 0 4.47715 0 10C0 15.5229 4.47715 20 10 20C15.5229 20 20 15.5229 20 10C20 4.47715 15.5229 0 10 0ZM7.5209 2.71023C7.88505 2.9063 8.31548 3.09178 8.8127 3.26683C9.3099 3.4419 9.80363 3.52963 10.2938 3.52963C10.6556 3.52893 11.0165 3.43915 11.3235 3.21428C11.6207 3.03615 11.9084 2.89402 12.2898 2.9306C12.6817 2.97342 13.0943 3.10835 13.5081 3.1307C14.0263 3.4108 14.5307 3.76043 15.0209 4.1806C14.7828 4.1946 14.5303 4.21967 14.2642 4.2547C13.9981 4.28972 13.7393 4.34172 13.4872 4.41173C13.2351 4.48175 13.0039 4.57325 12.7938 4.68528C12.5838 4.79733 12.4296 4.93705 12.3316 5.10512C12.1775 5.35722 12.0691 5.57088 12.0061 5.74595C11.8764 6.10893 11.9071 6.68808 11.6072 6.95415C11.5442 6.99617 11.4915 7.04503 11.4495 7.10105C11.4075 7.15708 11.3899 7.2304 11.3969 7.32142C11.4039 7.41245 11.4497 7.54217 11.5337 7.71023C11.5757 7.80828 11.6102 7.9273 11.6382 8.06737C11.9043 8.06652 12.1802 8.02648 12.4158 7.85713L13.8026 7.98317C14.1606 7.57995 14.5777 7.57323 14.9367 7.98317C15.0488 8.0952 15.1678 8.26375 15.2939 8.48785L14.7056 8.88678C14.5655 8.84477 14.3976 8.7608 14.2015 8.63477C14.1037 8.57873 14.0053 8.51545 13.9071 8.44543C13.3482 8.17417 12.2538 8.49007 11.6382 8.52965C11.558 8.69018 11.4933 8.84737 11.3026 8.8868C11.2695 8.99068 11.3015 9.10212 11.2602 9.20217C10.994 9.62233 10.9032 10.0634 10.9872 10.5256C11.1413 11.2539 11.5191 11.6179 12.1214 11.6179H12.3525C12.6466 11.6179 12.8534 11.6317 12.9724 11.6597C13.0915 11.6877 13.151 11.709 13.151 11.7231C13.081 11.8911 13.0565 12.024 13.0775 12.122C13.1469 12.4366 13.3739 12.6746 13.3505 13.0149C13.3287 13.4476 13.1926 13.8208 13.3403 14.2547C13.5087 14.6757 13.7203 15.1328 13.8761 15.5674C13.9391 15.6935 14.0337 15.7706 14.1597 15.7986C14.4118 15.8406 14.727 15.6726 15.1052 15.2945C15.3853 14.9864 15.5463 14.6499 15.5883 14.2858C15.6438 13.9634 15.871 13.6771 15.9455 13.3404V13.0674C16.0153 12.9274 16.0749 12.7908 16.124 12.6577C16.1941 12.4643 16.2018 12.2179 16.2184 11.996C16.4386 11.7758 16.6534 11.5792 16.8067 11.3026C16.9047 11.1345 16.9329 10.9879 16.8909 10.8619C16.8774 10.8339 16.8423 10.8057 16.7858 10.7777L16.4704 10.6516C16.4758 10.4755 16.7996 10.5018 16.9535 10.5256L17.7096 10.0634C17.6816 11.0157 17.4961 11.9368 17.153 12.8262C16.8099 13.7155 16.3024 14.5169 15.6301 15.2312C14.7338 16.2116 13.6586 16.9121 12.405 17.3322C11.1515 17.7524 9.85955 17.8364 8.52902 17.5843C8.75808 17.1796 8.89032 16.7236 9.15972 16.3235C9.15972 16.1134 9.19105 15.9348 9.25407 15.7878C9.52145 15.1692 9.95773 15.0082 10.4623 14.5276C10.9714 13.997 10.9666 13.37 10.9872 12.6051C10.9803 12.1211 10.2063 11.8239 9.85247 11.5546C9.03245 11.002 8.5117 10.189 7.34235 10.4306C6.92443 10.4732 6.82327 10.5545 6.51217 10.2945L6.38615 10.2312L6.39692 10.1894L6.44947 10.0842C6.57497 9.95297 6.3968 9.78792 6.22847 9.84233C6.19345 9.84933 6.15523 9.8531 6.11322 9.8531C6.07482 9.66548 5.94893 9.49093 5.92388 9.28573C6.11995 9.43978 6.2885 9.5557 6.42857 9.63273C6.56858 9.70978 6.68763 9.7624 6.78572 9.79042C6.88377 9.83243 6.96772 9.84622 7.03773 9.83222C7.1918 9.8042 7.2789 9.65005 7.29988 9.36995C7.3209 9.08985 7.31087 8.76778 7.26887 8.40363C7.31088 8.34765 7.33845 8.29125 7.35245 8.2352C7.50048 7.46973 7.89248 7.6376 8.48722 7.41643C8.58527 7.36042 8.60593 7.29023 8.5499 7.2062C8.5499 7.19218 8.54677 7.1853 8.53978 7.1853C8.5328 7.1853 8.52902 7.17778 8.52902 7.16377C8.85232 7.0014 9.04275 6.66895 9.2433 6.3659C9.07242 6.09512 8.80715 5.86903 8.50812 5.7143C8.34775 5.5165 7.71815 5.63777 7.5836 5.31535C7.47155 5.30133 7.3876 5.28003 7.33157 5.25203C6.76437 4.88445 6.52478 4.24167 5.91377 3.98113C5.66865 3.96013 5.4268 3.9639 5.18872 3.9919C5.90298 3.41768 6.68055 2.99037 7.5209 2.71023V2.71023ZM2.41578 8.63475C2.54183 8.84482 2.69597 9.03405 2.87803 9.20212C3.82302 10.0702 4.71127 10.2542 5.92388 10.6934C5.97985 10.7354 6.05693 10.8056 6.15502 10.9036C6.28713 11.0039 6.39893 11.124 6.5337 11.219C6.5337 11.289 6.52305 11.3867 6.50203 11.5128C6.48103 11.6388 6.47725 11.8419 6.49127 12.122C6.53175 12.9014 7.17453 13.5184 7.35247 14.2648C7.19465 15.2321 7.1924 16.1829 7.07955 17.1429C6.12717 16.7507 5.29072 16.1906 4.56942 15.4623C3.84813 14.734 3.29112 13.8869 2.89895 12.9205C2.61885 12.2202 2.44027 11.509 2.36323 10.7877C2.2861 10.0665 2.30367 9.34903 2.41578 8.63475V8.63475Z" fill="#013E87"/>
</g>
<defs>
<clipPath id="clip0_66_44">
<rect width="20" height="20" fill="white"/>
</clipPath>
</defs>
</svg>
