<svg width="14" height="20" viewBox="0 0 14 20" fill="none" xmlns="http://www.w3.org/2000/svg">
<path d="M2.1825 0.182501C2.24065 0.124499 2.30966 0.0785261 2.38559 0.0472115C2.46151 0.0158969 2.54287 -0.000145687 2.625 9.96867e-07H11.375C11.5408 9.96867e-07 11.6997 0.065849 11.8169 0.183059C11.9342 0.30027 12 0.459241 12 0.625001C12 1.475 11.5725 2.0925 11.1925 2.47375C11.035 2.63 10.88 2.75375 10.75 2.84625V8.385L10.8475 8.445C11.1013 8.60375 11.4425 8.8375 11.7863 9.13875C12.45 9.71875 13.25 10.6588 13.25 11.875C13.25 12.0408 13.1842 12.1997 13.0669 12.3169C12.9497 12.4342 12.7908 12.5 12.625 12.5H7.625V18.125C7.625 18.47 7.345 20 7 20C6.655 20 6.375 18.47 6.375 18.125V12.5H1.375C1.20924 12.5 1.05027 12.4342 0.933058 12.3169C0.815848 12.1997 0.75 12.0408 0.75 11.875C0.75 10.6588 1.55 9.71875 2.2125 9.13875C2.53587 8.85796 2.88301 8.60576 3.25 8.385V2.84625C3.09237 2.73464 2.94435 2.61004 2.8075 2.47375C2.4275 2.0925 2 1.47375 2 0.625001C1.99985 0.54287 2.0159 0.461515 2.04721 0.385588C2.07853 0.309661 2.1245 0.24065 2.1825 0.182501V0.182501Z" fill="#FCC810"/>
</svg>
