<svg width="80" height="80" viewBox="0 0 80 80" fill="none" xmlns="http://www.w3.org/2000/svg">
<path d="M77.43 7.46375C76.9613 5.13375 74.3225 3.58125 69.9963 3.0925C67.125 2.76875 64.5613 2.5 62.2913 2.5C55.86 2.5 51.5638 4.5775 38.915 11.2937C36.6813 11.3637 34.4712 11.6262 33.3262 12.0012C32.05 12.4137 32.1712 13.32 33.425 14.2125C30.059 16.0015 26.6865 17.7781 23.3075 19.5425C18.7538 18.1762 10.46 15.6688 7.06625 14.5225C4.045 13.505 2.5 16.8625 2.5 16.8625C2.5 16.8625 5.575 24.4062 7.42125 28.2262C7.0075 28.6987 6.67625 29.2275 6.525 29.8263C6.25 30.9113 6.35375 32.7225 7.5475 34.2563C8.95375 36.0613 11.4 36.9775 14.8213 36.9775C18.5363 36.9775 23.53 35.89 29.7375 33.7575L28.4462 35.7C26.4825 36.9462 24.4012 38.5988 22.1675 40.8488C21.7762 41.2438 21.1437 42.0325 21.2987 42.8937C21.3662 43.2687 21.6175 43.7925 22.51 44.1962C22.5887 44.2187 22.6775 44.2337 22.76 44.2537L22.6837 44.3687C21.075 46.9612 22.2 48.2837 25.185 47.31C26.9938 46.7175 29.1962 45.4838 31.0938 44.085C34.2825 43.5063 38.4825 42.3425 43.8863 40.1263C45.1925 39.59 45.815 37.3263 45.275 35.0813C44.5463 32.015 43.19 31.55 42.4425 31.5488L46.3688 26.905C54.4763 23.1363 63.7813 18.3312 74.2938 12.465C77.5325 10.6563 77.65 8.555 77.43 7.46375V7.46375ZM23.4262 43.2487C23.2498 43.217 23.0746 43.1782 22.9012 43.1325C22.7 43.0413 22.4525 42.8888 22.4163 42.69C22.3725 42.4475 22.5962 42.03 22.9737 41.65C24.1486 40.4581 25.3973 39.3413 26.7125 38.3063L23.4262 43.2487V43.2487ZM44.1687 35.3425C44.6225 37.2225 44.0387 38.8325 43.455 39.0712C39.2375 40.8025 35.78 41.8763 32.9775 42.5313C33.4337 42.1113 33.8612 41.69 34.2075 41.2825L41.3875 32.7925L41.6012 32.7675L42.435 32.6825C43.1263 32.6825 43.7737 33.6763 44.1687 35.3425V35.3425ZM73.185 10.48C64.255 15.4612 56.5638 19.475 49.9275 22.6975L53.0137 19.0488C54.9925 16.7113 54.26 15.8438 51.3863 17.1263L40.2938 22.0738C37.4188 23.3563 36.0913 24.03 34.4825 26.6213L31.8425 30.595C23.5988 33.6687 18.2637 34.705 14.8225 34.705C8.2875 34.705 8.58125 30.97 8.72875 30.3863L26.3138 21.4675C26.9063 21.1662 26.9588 20.7175 26.4313 20.4763H26.43C31.505 17.8163 35.695 15.58 39.2213 13.705C40.6615 12.9391 42.1036 12.1766 43.5475 11.4175C53.3063 6.295 56.9975 4.7725 62.2925 4.7725C64.3725 4.7725 66.7 5.0075 69.7437 5.35125C75.0937 5.95375 77.09 8.3025 73.185 10.48" fill="#F8F8F8"/>
<path d="M41.82 33.1462C41.615 33.885 41.565 34.8212 41.7175 35.7987C41.95 37.2637 42.5775 38.41 43.285 38.845C43.49 38.1012 43.54 37.165 43.3825 36.1862C43.1525 34.72 42.5275 33.5775 41.82 33.1462V33.1462ZM60.645 9.10123C60.645 9.10123 61.26 10.0725 62.975 9.58748C64.46 9.16748 65.9288 7.72748 66.7638 6.14873L64.3225 5.60498C63.81 6.46248 60.645 9.10123 60.645 9.10123" fill="#F8F8F8"/>
<path d="M26.6886 25.6563C27.2851 25.6563 27.7686 25.1727 27.7686 24.5763C27.7686 23.9798 27.2851 23.4963 26.6886 23.4963C26.0922 23.4963 25.6086 23.9798 25.6086 24.5763C25.6086 25.1727 26.0922 25.6563 26.6886 25.6563Z" fill="#F8F8F8"/>
<path d="M30.8076 23.5325C31.4047 23.5325 31.8888 23.0484 31.8888 22.4512C31.8888 21.8541 31.4047 21.37 30.8076 21.37C30.2104 21.37 29.7263 21.8541 29.7263 22.4512C29.7263 23.0484 30.2104 23.5325 30.8076 23.5325Z" fill="#F8F8F8"/>
<path d="M34.9274 21.4088C35.5246 21.4088 36.0087 20.9247 36.0087 20.3275C36.0087 19.7304 35.5246 19.2463 34.9274 19.2463C34.3303 19.2463 33.8462 19.7304 33.8462 20.3275C33.8462 20.9247 34.3303 21.4088 34.9274 21.4088Z" fill="#F8F8F8"/>
<path d="M39.0476 19.285C39.6447 19.285 40.1288 18.8009 40.1288 18.2037C40.1288 17.6066 39.6447 17.1225 39.0476 17.1225C38.4504 17.1225 37.9663 17.6066 37.9663 18.2037C37.9663 18.8009 38.4504 19.285 39.0476 19.285Z" fill="#F8F8F8"/>
<path d="M43.1662 17.1575C43.7627 17.1575 44.2462 16.674 44.2462 16.0775C44.2462 15.481 43.7627 14.9975 43.1662 14.9975C42.5697 14.9975 42.0862 15.481 42.0862 16.0775C42.0862 16.674 42.5697 17.1575 43.1662 17.1575Z" fill="#F8F8F8"/>
<path d="M46.7913 12.995C46.6628 13.0586 46.5482 13.1472 46.4542 13.2555C46.3603 13.3639 46.2888 13.4899 46.2441 13.6261C46.1993 13.7624 46.1822 13.9062 46.1936 14.0491C46.2051 14.1921 46.2448 14.3313 46.3107 14.4587C46.3765 14.5862 46.467 14.6992 46.577 14.7912C46.687 14.8833 46.8142 14.9525 46.9512 14.9949C47.0882 15.0372 47.2323 15.0519 47.375 15.0379C47.5178 15.024 47.6563 14.9818 47.7826 14.9138C47.9089 14.849 48.0212 14.76 48.1129 14.6517C48.2047 14.5434 48.2742 14.4181 48.3174 14.2829C48.3606 14.1477 48.3767 14.0053 48.3647 13.8639C48.3527 13.7224 48.3129 13.5848 48.2476 13.4588C48.1827 13.3324 48.0935 13.2201 47.9851 13.1283C47.8767 13.0366 47.7512 12.9671 47.6159 12.924C47.4805 12.8809 47.338 12.865 47.1965 12.8772C47.055 12.8894 46.9173 12.9294 46.7913 12.995" fill="#F8F8F8"/>
<path d="M51.405 12.91C52.0021 12.91 52.4862 12.4259 52.4862 11.8287C52.4862 11.2316 52.0021 10.7475 51.405 10.7475C50.8078 10.7475 50.3237 11.2316 50.3237 11.8287C50.3237 12.4259 50.8078 12.91 51.405 12.91Z" fill="#F8F8F8"/>
<path d="M38.8639 77.5C54.2726 77.5 66.7639 76.2274 66.7639 74.6575C66.7639 73.0876 54.2726 71.815 38.8639 71.815C23.4551 71.815 10.9639 73.0876 10.9639 74.6575C10.9639 76.2274 23.4551 77.5 38.8639 77.5Z" fill="#F8F8F8"/>
</svg>
